<svg width="73" height="73" viewBox="0 0 73 73" fill="none" xmlns="http://www.w3.org/2000/svg">
<path d="M22.6406 26.8594C22.1354 26.8438 21.6979 26.7266 21.3281 26.5078C20.9583 26.2891 20.651 26 20.4062 25.6406C20.1719 25.2969 19.9948 24.9115 19.875 24.4844C19.7552 24.0625 19.6953 23.6432 19.6953 23.2266V21.9062C19.6953 21.1562 19.5156 20.612 19.1562 20.2734C18.8021 19.9349 18.2578 19.763 17.5234 19.7578V18.625C18.2578 18.625 18.8021 18.4583 19.1562 18.125C19.5156 17.7865 19.6953 17.2396 19.6953 16.4844V15.1562C19.6953 14.7344 19.75 14.3047 19.8594 13.8672C19.974 13.4245 20.1536 13.0286 20.3984 12.6797C20.6276 12.3464 20.9271 12.0755 21.2969 11.8672C21.6667 11.6536 22.1146 11.5391 22.6406 11.5234L22.8047 12.4219C22.4297 12.4323 22.1302 12.5208 21.9062 12.6875C21.6875 12.8542 21.5234 13.0651 21.4141 13.3203C21.2995 13.5807 21.2266 13.8724 21.1953 14.1953C21.1641 14.5182 21.1484 14.8385 21.1484 15.1562V16.4844C21.1484 17.1094 21.0026 17.6589 20.7109 18.1328C20.4245 18.6016 19.9792 18.9583 19.375 19.2031C19.9792 19.4427 20.4245 19.7995 20.7109 20.2734C20.9974 20.7422 21.1432 21.2865 21.1484 21.9062V23.2266C21.1484 23.5495 21.1745 23.8698 21.2266 24.1875C21.2786 24.5104 21.3698 24.7995 21.5 25.0547C21.625 25.3151 21.7917 25.5286 22 25.6953C22.2135 25.862 22.4818 25.9505 22.8047 25.9609L22.6406 26.8594Z" fill="#F8F5EC"/>
<path d="M45.5234 25.9609C45.8411 25.9505 46.1068 25.862 46.3203 25.6953C46.5339 25.5286 46.7057 25.3151 46.8359 25.0547C46.9609 24.7995 47.0495 24.5104 47.1016 24.1875C47.1589 23.8698 47.1875 23.5495 47.1875 23.2266V21.9062C47.1875 21.4948 47.2474 21.1146 47.3672 20.7656C47.4922 20.4167 47.6823 20.1146 47.9375 19.8594C48.0729 19.724 48.224 19.6016 48.3906 19.4922C48.5625 19.3828 48.75 19.2865 48.9531 19.2031C48.7448 19.1198 48.5521 19.0208 48.375 18.9062C48.2031 18.7917 48.0521 18.6641 47.9219 18.5234C47.6719 18.263 47.487 17.9609 47.3672 17.6172C47.2474 17.2682 47.1875 16.8906 47.1875 16.4844V15.1562C47.1875 14.8385 47.1693 14.5182 47.1328 14.1953C47.1016 13.8724 47.0312 13.5807 46.9219 13.3203C46.8073 13.0651 46.6406 12.8542 46.4219 12.6875C46.2031 12.5208 45.9062 12.4323 45.5312 12.4219L45.6875 11.5234C46.1927 11.5391 46.625 11.6458 46.9844 11.8438C47.349 12.0417 47.6484 12.2995 47.8828 12.6172C48.1484 12.9766 48.3385 13.3802 48.4531 13.8281C48.5729 14.276 48.6328 14.7188 48.6328 15.1562V16.4844C48.6328 16.7969 48.6615 17.0729 48.7188 17.3125C48.7812 17.5469 48.8724 17.75 48.9922 17.9219C49.1641 18.1667 49.401 18.3464 49.7031 18.4609C50.0104 18.5703 50.3776 18.625 50.8047 18.625V19.7578C50.4297 19.763 50.1016 19.8099 49.8203 19.8984C49.5443 19.9818 49.3177 20.1146 49.1406 20.2969C48.9688 20.474 48.8411 20.6953 48.7578 20.9609C48.6745 21.2266 48.6328 21.5417 48.6328 21.9062V23.2266C48.6328 23.6432 48.5755 24.0625 48.4609 24.4844C48.3464 24.9115 48.1693 25.2995 47.9297 25.6484C47.6849 25.9974 47.3776 26.2839 47.0078 26.5078C46.638 26.7318 46.1979 26.849 45.6875 26.8594L45.5234 25.9609Z" fill="#F8F5EC"/>
<path d="M44.604 35H54.4698L68 19.3504L54.4698 3H44.604L26.2819 35H17.2617L5 19.3504L17.2617 3H26.2819" stroke="#89BCD9" stroke-width="4" stroke-linecap="round"/>
<path d="M1.09375 41.8906H3.23438L8.07031 50.6172V41.8906H9.71875V53H7.57812L2.74219 44.3906V53H1.09375V41.8906ZM11.7109 52.0625C11.7109 51.7812 11.8099 51.5417 12.0078 51.3438C12.2057 51.1458 12.4453 51.0469 12.7266 51.0469C13.013 51.0469 13.2526 51.1458 13.4453 51.3438C13.6432 51.5365 13.7422 51.776 13.7422 52.0625C13.7422 52.349 13.6432 52.5911 13.4453 52.7891C13.2526 52.9818 13.013 53.0781 12.7266 53.0781C12.4453 53.0781 12.2057 52.9792 12.0078 52.7812C11.8099 52.5833 11.7109 52.3438 11.7109 52.0625ZM18.1641 40.0703C18.1641 39.8255 18.2474 39.6198 18.4141 39.4531C18.5807 39.2865 18.7839 39.2031 19.0234 39.2031C19.2682 39.2031 19.474 39.2865 19.6406 39.4531C19.8073 39.6198 19.8906 39.8255 19.8906 40.0703C19.8906 40.3099 19.8073 40.513 19.6406 40.6797C19.474 40.8464 19.2682 40.9297 19.0234 40.9297C18.7839 40.9297 18.5807 40.8464 18.4141 40.6797C18.2474 40.513 18.1641 40.3099 18.1641 40.0703ZM20.8203 40.0703C20.8203 39.8255 20.9036 39.6198 21.0703 39.4531C21.237 39.2865 21.4401 39.2031 21.6797 39.2031C21.9245 39.2031 22.1302 39.2865 22.2969 39.4531C22.4635 39.6198 22.5469 39.8255 22.5469 40.0703C22.5469 40.3099 22.4635 40.513 22.2969 40.6797C22.1302 40.8464 21.9245 40.9297 21.6797 40.9297C21.4401 40.9297 21.237 40.8464 21.0703 40.6797C20.9036 40.513 20.8203 40.3099 20.8203 40.0703ZM15.7344 45.0156C15.7344 44.4375 15.8828 43.9141 16.1797 43.4453C16.4818 42.9714 16.8828 42.5938 17.3828 42.3125C17.8828 42.0312 18.4375 41.8906 19.0469 41.8906H21.6484C22.2578 41.8906 22.8125 42.0312 23.3125 42.3125C23.8177 42.5938 24.2188 42.9714 24.5156 43.4453C24.8125 43.9141 24.9609 44.4375 24.9609 45.0156V49.875C24.9609 50.4479 24.8125 50.9714 24.5156 51.4453C24.2188 51.9193 23.8177 52.2969 23.3125 52.5781C22.8125 52.8594 22.2578 53 21.6484 53H19.0469C18.4375 53 17.8828 52.8594 17.3828 52.5781C16.8828 52.2969 16.4818 51.9193 16.1797 51.4453C15.8828 50.9714 15.7344 50.4479 15.7344 49.875V45.0156ZM17.3828 49.8828C17.3828 50.2891 17.5443 50.638 17.8672 50.9297C18.1953 51.2161 18.5885 51.3594 19.0469 51.3594H21.6484C22.112 51.3594 22.5052 51.2161 22.8281 50.9297C23.151 50.638 23.3125 50.2891 23.3125 49.8828V45.0078C23.3125 44.6016 23.151 44.2552 22.8281 43.9688C22.5052 43.6771 22.112 43.5312 21.6484 43.5312H19.0469C18.5885 43.5312 18.1953 43.6771 17.8672 43.9688C17.5443 44.2552 17.3828 44.6016 17.3828 45.0078V49.8828ZM26.9219 47.1797C26.9219 46.7578 27.026 46.375 27.2344 46.0312C27.4479 45.6875 27.7292 45.4141 28.0781 45.2109C28.4323 45.0078 28.8229 44.9062 29.25 44.9062H34V46.5547H29.25C29.0625 46.5547 28.901 46.6172 28.7656 46.7422C28.6354 46.862 28.5703 47.0078 28.5703 47.1797V47.375C28.5703 47.5521 28.6354 47.7031 28.7656 47.8281C28.901 47.9531 29.0625 48.0156 29.25 48.0156H32.2031C32.6302 48.0156 33.0182 48.1198 33.3672 48.3281C33.7214 48.5312 34.0026 48.8047 34.2109 49.1484C34.4193 49.4922 34.5234 49.875 34.5234 50.2969V50.7188C34.5234 51.1354 34.4193 51.5182 34.2109 51.8672C34.0026 52.2109 33.7214 52.487 33.3672 52.6953C33.0182 52.8984 32.6302 53 32.2031 53H27.2891V51.3516H32.2031C32.3906 51.3516 32.5495 51.2891 32.6797 51.1641C32.8151 51.0391 32.8828 50.888 32.8828 50.7109V50.3047C32.8828 50.1224 32.8151 49.9688 32.6797 49.8438C32.5495 49.7188 32.3906 49.6562 32.2031 49.6562H29.25C28.8229 49.6562 28.4323 49.5547 28.0781 49.3516C27.7292 49.1432 27.4479 48.8672 27.2344 48.5234C27.026 48.1745 26.9219 47.7917 26.9219 47.375V47.1797ZM35.8594 44.9062H36.9141V41.8906H38.5625V44.9062H41.0547V46.5547H38.5625V50.7031C38.5625 50.8802 38.6302 51.0339 38.7656 51.1641C38.9062 51.2891 39.0729 51.3516 39.2656 51.3516H41.0547V53H39.2422C38.8151 53 38.4245 52.8984 38.0703 52.6953C37.7214 52.487 37.4401 52.2109 37.2266 51.8672C37.0182 51.5182 36.9141 51.1328 36.9141 50.7109V46.5547H35.8594V44.9062ZM42.5469 46.5781C42.5469 46.1146 42.7161 45.7214 43.0547 45.3984C43.3932 45.0703 43.7995 44.9062 44.2734 44.9062H47.6484C48.0807 44.9062 48.4714 45.013 48.8203 45.2266C49.1745 45.4349 49.4557 45.7188 49.6641 46.0781C49.8776 46.4323 49.9844 46.8255 49.9844 47.2578V47.4844C49.9844 47.9115 49.8776 48.3021 49.6641 48.6562C49.4557 49.0052 49.1745 49.2865 48.8203 49.5C48.4714 49.7083 48.0807 49.8125 47.6484 49.8125H45.1328V48.1719H47.6641C47.8516 48.1719 48.0104 48.1042 48.1406 47.9688C48.276 47.8333 48.3438 47.6693 48.3438 47.4766V47.2578C48.3438 47.0599 48.276 46.8932 48.1406 46.7578C48.0104 46.6224 47.8516 46.5547 47.6641 46.5547H44.1953V50.7109C44.1953 50.888 44.2552 51.0391 44.375 51.1641C44.4948 51.2891 44.6406 51.3516 44.8125 51.3516H49.4141V53H44.8125C44.3958 53 44.0156 52.8984 43.6719 52.6953C43.3281 52.487 43.0547 52.2109 42.8516 51.8672C42.6484 51.5182 42.5469 51.1354 42.5469 50.7188V46.5781ZM51.7812 47.1719C51.7812 46.7552 51.8854 46.375 52.0938 46.0312C52.3073 45.6875 52.5885 45.4141 52.9375 45.2109C53.2917 45.0078 53.6823 44.9062 54.1094 44.9062H55.9141V46.5469H54.1094C53.9219 46.5469 53.7604 46.612 53.625 46.7422C53.4948 46.8672 53.4297 47.0208 53.4297 47.2031V53H51.7812V47.1719ZM57.4062 41.8906H59.0547V53H57.4062V41.8906ZM60.9375 46.5781C60.9375 46.1146 61.1068 45.7214 61.4453 45.3984C61.7839 45.0703 62.1901 44.9062 62.6641 44.9062H66.0391C66.4714 44.9062 66.862 45.013 67.2109 45.2266C67.5651 45.4349 67.8464 45.7188 68.0547 46.0781C68.2682 46.4323 68.375 46.8255 68.375 47.2578V47.4844C68.375 47.9115 68.2682 48.3021 68.0547 48.6562C67.8464 49.0052 67.5651 49.2865 67.2109 49.5C66.862 49.7083 66.4714 49.8125 66.0391 49.8125H63.5234V48.1719H66.0547C66.2422 48.1719 66.401 48.1042 66.5312 47.9688C66.6667 47.8333 66.7344 47.6693 66.7344 47.4766V47.2578C66.7344 47.0599 66.6667 46.8932 66.5312 46.7578C66.401 46.6224 66.2422 46.5547 66.0547 46.5547H62.5859V50.7109C62.5859 50.888 62.6458 51.0391 62.7656 51.1641C62.8854 51.2891 63.0312 51.3516 63.2031 51.3516H67.8047V53H63.2031C62.7865 53 62.4062 52.8984 62.0625 52.6953C61.7188 52.487 61.4453 52.2109 61.2422 51.8672C61.0391 51.5182 60.9375 51.1354 60.9375 50.7188V46.5781Z" fill="#F8F5EC"/>
<path d="M3.984 68.128C3.39733 68.128 2.864 67.9893 2.384 67.712C1.904 67.424 1.52 67.0293 1.232 66.528C0.954667 66.0267 0.816 65.4613 0.816 64.832C0.816 64.16 0.96 63.5787 1.248 63.088C1.536 62.5973 1.92533 62.2187 2.416 61.952C2.91733 61.6853 3.46667 61.552 4.064 61.552C4.66133 61.552 5.22667 61.7067 5.76 62.016C6.304 62.3253 6.69867 62.7307 6.944 63.232L6.816 63.584V55.84H7.568V68H6.8V66.08L6.96 66.432C6.69333 66.9333 6.29333 67.344 5.76 67.664C5.22667 67.9733 4.63467 68.128 3.984 68.128ZM4.176 67.472C4.656 67.472 5.088 67.3707 5.472 67.168C5.856 66.9547 6.16533 66.672 6.4 66.32C6.63467 65.9573 6.768 65.552 6.8 65.104V64.304C6.72533 63.8987 6.56 63.536 6.304 63.216C6.048 62.896 5.73867 62.6453 5.376 62.464C5.01333 62.272 4.61333 62.176 4.176 62.176C3.696 62.176 3.25867 62.288 2.864 62.512C2.46933 62.736 2.15467 63.0453 1.92 63.44C1.68533 63.8347 1.568 64.2933 1.568 64.816C1.568 65.3067 1.68533 65.7547 1.92 66.16C2.15467 66.5547 2.46933 66.8747 2.864 67.12C3.26933 67.3547 3.70667 67.472 4.176 67.472ZM13.1284 68.128C12.4777 68.128 11.9017 67.984 11.4004 67.696C10.899 67.408 10.5044 67.0187 10.2164 66.528C9.93904 66.0267 9.80038 65.4667 9.80038 64.848C9.80038 64.24 9.94971 63.6853 10.2484 63.184C10.547 62.6827 10.947 62.2827 11.4484 61.984C11.9604 61.6853 12.5257 61.536 13.1444 61.536C13.891 61.536 14.515 61.7547 15.0164 62.192C15.5284 62.6293 15.8964 63.2 16.1204 63.904L10.6484 66.016L10.4244 65.472L15.4324 63.52L15.2724 63.744C15.091 63.3173 14.8137 62.9493 14.4404 62.64C14.0777 62.3307 13.6297 62.176 13.0964 62.176C12.6164 62.176 12.1844 62.2933 11.8004 62.528C11.4164 62.7627 11.107 63.0773 10.8724 63.472C10.6484 63.8667 10.5364 64.3147 10.5364 64.816C10.5364 65.2853 10.643 65.7227 10.8564 66.128C11.0804 66.5333 11.3897 66.8587 11.7844 67.104C12.179 67.3493 12.6324 67.472 13.1444 67.472C13.4857 67.472 13.811 67.408 14.1204 67.28C14.4404 67.152 14.723 66.9867 14.9684 66.784L15.3524 67.328C15.0537 67.5627 14.707 67.7547 14.3124 67.904C13.9284 68.0533 13.5337 68.128 13.1284 68.128ZM20.2566 68.24L17.0886 61.744H17.9686L20.5766 67.424L20.1126 67.408L22.6246 61.744H23.4566L20.3526 68.24H20.2566ZM27.9721 68.128C27.3215 68.128 26.7455 67.984 26.2441 67.696C25.7428 67.408 25.3481 67.0187 25.0601 66.528C24.7828 66.0267 24.6441 65.4667 24.6441 64.848C24.6441 64.24 24.7935 63.6853 25.0921 63.184C25.3908 62.6827 25.7908 62.2827 26.2921 61.984C26.8041 61.6853 27.3695 61.536 27.9881 61.536C28.7348 61.536 29.3588 61.7547 29.8601 62.192C30.3721 62.6293 30.7401 63.2 30.9641 63.904L25.4921 66.016L25.2681 65.472L30.2761 63.52L30.1161 63.744C29.9348 63.3173 29.6575 62.9493 29.2841 62.64C28.9215 62.3307 28.4735 62.176 27.9401 62.176C27.4601 62.176 27.0281 62.2933 26.6441 62.528C26.2601 62.7627 25.9508 63.0773 25.7161 63.472C25.4921 63.8667 25.3801 64.3147 25.3801 64.816C25.3801 65.2853 25.4868 65.7227 25.7001 66.128C25.9241 66.5333 26.2335 66.8587 26.6281 67.104C27.0228 67.3493 27.4761 67.472 27.9881 67.472C28.3295 67.472 28.6548 67.408 28.9641 67.28C29.2841 67.152 29.5668 66.9867 29.8121 66.784L30.1961 67.328C29.8975 67.5627 29.5508 67.7547 29.1561 67.904C28.7721 68.0533 28.3775 68.128 27.9721 68.128ZM33.049 55.84H33.801V68H33.049V55.84ZM36.0348 64.832C36.0348 64.224 36.1788 63.6693 36.4668 63.168C36.7654 62.6667 37.1654 62.272 37.6668 61.984C38.1788 61.6853 38.7494 61.536 39.3788 61.536C40.0188 61.536 40.5894 61.6853 41.0908 61.984C41.5921 62.272 41.9868 62.6667 42.2748 63.168C42.5628 63.6693 42.7068 64.224 42.7068 64.832C42.7068 65.44 42.5628 65.9947 42.2748 66.496C41.9868 66.9973 41.5868 67.3973 41.0748 67.696C40.5734 67.984 40.0081 68.128 39.3788 68.128C38.7388 68.128 38.1681 67.9893 37.6668 67.712C37.1654 67.424 36.7654 67.0347 36.4668 66.544C36.1788 66.0427 36.0348 65.472 36.0348 64.832ZM36.7868 64.848C36.7868 65.3387 36.8988 65.7867 37.1228 66.192C37.3574 66.5867 37.6668 66.9013 38.0508 67.136C38.4454 67.3707 38.8828 67.488 39.3628 67.488C39.8428 67.488 40.2748 67.3707 40.6588 67.136C41.0534 66.9013 41.3628 66.5867 41.5868 66.192C41.8214 65.7867 41.9388 65.3387 41.9388 64.848C41.9388 64.3573 41.8214 63.9147 41.5868 63.52C41.3628 63.1147 41.0534 62.7947 40.6588 62.56C40.2748 62.3147 39.8428 62.192 39.3628 62.192C38.8721 62.192 38.4294 62.32 38.0348 62.576C37.6508 62.8213 37.3468 63.1467 37.1228 63.552C36.8988 63.9573 36.7868 64.3893 36.7868 64.848ZM48.3956 68.128C47.7983 68.128 47.2383 67.9733 46.7156 67.664C46.193 67.344 45.809 66.9333 45.5636 66.432L45.6916 66.16V71.008H44.9396V61.696H45.6116L45.6916 63.744L45.5476 63.28C45.825 62.7787 46.2303 62.368 46.7636 62.048C47.297 61.7173 47.8783 61.552 48.5076 61.552C49.105 61.552 49.6436 61.696 50.1236 61.984C50.6036 62.272 50.9823 62.6667 51.2596 63.168C51.5476 63.6587 51.6916 64.224 51.6916 64.864C51.6916 65.4933 51.5423 66.0587 51.2436 66.56C50.9556 67.0507 50.561 67.4347 50.0596 67.712C49.569 67.9893 49.0143 68.128 48.3956 68.128ZM48.2676 67.504C48.7583 67.504 49.201 67.3867 49.5956 67.152C50.001 66.9173 50.321 66.6027 50.5556 66.208C50.801 65.8027 50.9236 65.3547 50.9236 64.864C50.9236 64.3627 50.8063 63.9147 50.5716 63.52C50.337 63.1147 50.0223 62.7947 49.6276 62.56C49.2436 62.3253 48.8063 62.208 48.3156 62.208C47.8463 62.208 47.4196 62.3147 47.0356 62.528C46.6516 62.7413 46.3423 63.0293 46.1076 63.392C45.873 63.7547 45.7343 64.1653 45.6916 64.624V65.136C45.7236 65.5733 45.857 65.9733 46.0916 66.336C46.337 66.6987 46.6463 66.9867 47.0196 67.2C47.4036 67.4027 47.8196 67.504 48.2676 67.504ZM56.644 68.128C55.9933 68.128 55.4173 67.984 54.916 67.696C54.4147 67.408 54.02 67.0187 53.732 66.528C53.4547 66.0267 53.316 65.4667 53.316 64.848C53.316 64.24 53.4653 63.6853 53.764 63.184C54.0627 62.6827 54.4627 62.2827 54.964 61.984C55.476 61.6853 56.0413 61.536 56.66 61.536C57.4067 61.536 58.0307 61.7547 58.532 62.192C59.044 62.6293 59.412 63.2 59.636 63.904L54.164 66.016L53.94 65.472L58.948 63.52L58.788 63.744C58.6067 63.3173 58.3293 62.9493 57.956 62.64C57.5933 62.3307 57.1453 62.176 56.612 62.176C56.132 62.176 55.7 62.2933 55.316 62.528C54.932 62.7627 54.6227 63.0773 54.388 63.472C54.164 63.8667 54.052 64.3147 54.052 64.816C54.052 65.2853 54.1587 65.7227 54.372 66.128C54.596 66.5333 54.9053 66.8587 55.3 67.104C55.6947 67.3493 56.148 67.472 56.66 67.472C57.0013 67.472 57.3267 67.408 57.636 67.28C57.956 67.152 58.2387 66.9867 58.484 66.784L58.868 67.328C58.5693 67.5627 58.2227 67.7547 57.828 67.904C57.444 68.0533 57.0493 68.128 56.644 68.128ZM62.3769 61.744L62.4569 63.664L62.3609 63.424C62.4995 63.04 62.7182 62.7093 63.0169 62.432C63.3155 62.1547 63.6462 61.9413 64.0089 61.792C64.3822 61.6427 64.7395 61.568 65.0809 61.568L65.0489 62.304C64.5689 62.304 64.1315 62.4107 63.7369 62.624C63.3529 62.8373 63.0435 63.1253 62.8089 63.488C62.5849 63.84 62.4729 64.24 62.4729 64.688V68H61.7209V61.744H62.3769Z" fill="#89BCD9"/>
</svg>
