<svg width="445" height="80" viewBox="0 0 445 80" fill="none" xmlns="http://www.w3.org/2000/svg">
<rect x="0.5" y="20.5" width="444" height="59" rx="29.5" stroke="#89BCD9"/>
<path d="M31.144 11.626L27.392 4.878H29.058L32.068 10.464L31.648 10.492L34.63 4.878H36.282L32.502 11.626V15H31.144V11.626ZM35.8195 12.046C35.8195 11.4673 35.9548 10.9447 36.2255 10.478C36.5055 10.0113 36.8881 9.64267 37.3735 9.372C37.8588 9.10133 38.4095 8.966 39.0255 8.966C39.6601 8.966 40.2155 9.10133 40.6915 9.372C41.1675 9.64267 41.5361 10.0113 41.7975 10.478C42.0588 10.9447 42.1895 11.4673 42.1895 12.046C42.1895 12.6247 42.0588 13.152 41.7975 13.628C41.5361 14.0947 41.1628 14.4633 40.6775 14.734C40.2015 15.0047 39.6461 15.14 39.0115 15.14C38.3955 15.14 37.8448 15.014 37.3595 14.762C36.8835 14.5007 36.5055 14.1413 36.2255 13.684C35.9548 13.2173 35.8195 12.6713 35.8195 12.046ZM37.1215 12.06C37.1215 12.4333 37.2055 12.774 37.3735 13.082C37.5415 13.3807 37.7655 13.6187 38.0455 13.796C38.3348 13.9733 38.6521 14.062 38.9975 14.062C39.3615 14.062 39.6835 13.9733 39.9635 13.796C40.2528 13.6187 40.4768 13.3807 40.6355 13.082C40.7941 12.774 40.8735 12.4333 40.8735 12.06C40.8735 11.6867 40.7941 11.3507 40.6355 11.052C40.4768 10.744 40.2528 10.5013 39.9635 10.324C39.6835 10.1373 39.3615 10.044 38.9975 10.044C38.6428 10.044 38.3208 10.1373 38.0315 10.324C37.7515 10.5107 37.5275 10.758 37.3595 11.066C37.2008 11.3647 37.1215 11.696 37.1215 12.06ZM45.7864 15.224C45.2637 15.224 44.8297 15.0653 44.4844 14.748C44.1484 14.4213 43.971 14.0013 43.9524 13.488V9.204H45.2544V13.026C45.273 13.3433 45.3617 13.6 45.5204 13.796C45.6884 13.992 45.9497 14.0947 46.3044 14.104C46.631 14.104 46.9204 14.0107 47.1724 13.824C47.4337 13.628 47.6437 13.3667 47.8024 13.04C47.961 12.704 48.0404 12.326 48.0404 11.906V9.204H49.3424V15H48.1524L48.0404 13.572L48.1104 13.824C47.9984 14.0947 47.8257 14.3373 47.5924 14.552C47.3684 14.7573 47.1024 14.9207 46.7944 15.042C46.4864 15.1633 46.1504 15.224 45.7864 15.224ZM52.7569 9.204L52.8829 10.884L52.8129 10.66C52.9623 10.3053 53.1769 10.0067 53.4569 9.764C53.7463 9.512 54.0449 9.32067 54.3529 9.19C54.6703 9.05 54.9456 8.98 55.1789 8.98L55.1089 10.268C54.6703 10.24 54.2829 10.324 53.9469 10.52C53.6203 10.716 53.3589 10.9773 53.1629 11.304C52.9763 11.6307 52.8829 11.9807 52.8829 12.354V15H51.5949V9.204H52.7569ZM62.4503 9.204L62.5623 10.618L62.5063 10.394C62.693 9.96467 62.9963 9.624 63.4163 9.372C63.8363 9.11067 64.3216 8.98 64.8723 8.98C65.423 8.98 65.871 9.14333 66.2163 9.47C66.571 9.78733 66.753 10.2027 66.7623 10.716V15H65.4463V11.178C65.437 10.8607 65.3436 10.604 65.1663 10.408C64.9983 10.2027 64.7323 10.1 64.3683 10.1C64.0323 10.1 63.729 10.1933 63.4583 10.38C63.1876 10.5667 62.973 10.8233 62.8143 11.15C62.665 11.4767 62.5903 11.8547 62.5903 12.284V15H61.2883V9.204H62.4503ZM71.4346 15.14C70.8932 15.14 70.3986 15.0233 69.9506 14.79C69.5119 14.5567 69.1619 14.216 68.9006 13.768C68.6486 13.3107 68.5226 12.7553 68.5226 12.102C68.5226 11.458 68.6579 10.9027 68.9286 10.436C69.1992 9.96 69.5586 9.596 70.0066 9.344C70.4639 9.092 70.9632 8.966 71.5046 8.966C72.0459 8.966 72.5032 9.092 72.8766 9.344C73.2499 9.58667 73.5346 9.876 73.7306 10.212L73.6466 10.436L73.7726 9.204H74.9766V15H73.6746V13.488L73.8146 13.824C73.7772 13.9173 73.6932 14.0387 73.5626 14.188C73.4412 14.328 73.2732 14.4727 73.0586 14.622C72.8532 14.7713 72.6152 14.8973 72.3446 15C72.0739 15.0933 71.7706 15.14 71.4346 15.14ZM71.7846 14.062C72.1112 14.062 72.4052 14.0013 72.6666 13.88C72.9279 13.7587 73.1426 13.5907 73.3106 13.376C73.4879 13.152 73.6092 12.886 73.6746 12.578V11.444C73.5999 11.164 73.4692 10.9213 73.2826 10.716C73.0959 10.5013 72.8719 10.338 72.6106 10.226C72.3492 10.1047 72.0599 10.044 71.7426 10.044C71.3972 10.044 71.0799 10.128 70.7906 10.296C70.5012 10.464 70.2679 10.6973 70.0906 10.996C69.9226 11.2947 69.8386 11.6447 69.8386 12.046C69.8386 12.4193 69.9272 12.76 70.1046 13.068C70.2819 13.376 70.5199 13.6187 70.8186 13.796C71.1172 13.9733 71.4392 14.062 71.7846 14.062ZM78.3917 9.204L78.5037 10.506L78.4477 10.394C78.6624 9.95533 78.9657 9.61 79.3577 9.358C79.759 9.106 80.2164 8.98 80.7297 8.98C81.0564 8.98 81.3457 9.03133 81.5977 9.134C81.8497 9.23667 82.055 9.386 82.2137 9.582C82.3817 9.76867 82.489 10.002 82.5357 10.282L82.4657 10.324C82.6897 9.904 82.9977 9.57733 83.3897 9.344C83.791 9.10133 84.211 8.98 84.6497 8.98C85.219 8.98 85.667 9.14333 85.9937 9.47C86.3297 9.78733 86.5024 10.2027 86.5117 10.716V15H85.2097V11.178C85.2004 10.8793 85.1257 10.632 84.9857 10.436C84.855 10.2307 84.6217 10.1187 84.2857 10.1C83.9497 10.1 83.6464 10.2027 83.3757 10.408C83.1144 10.6133 82.909 10.8793 82.7597 11.206C82.6104 11.5233 82.531 11.8687 82.5217 12.242V15H81.2197V11.178C81.2104 10.8793 81.131 10.632 80.9817 10.436C80.8417 10.2307 80.6037 10.1187 80.2677 10.1C79.9224 10.1 79.619 10.2027 79.3577 10.408C79.0964 10.6133 78.891 10.8793 78.7417 11.206C78.6017 11.5327 78.5317 11.8827 78.5317 12.256V15H77.2297V9.204H78.3917ZM91.4704 15.14C90.8078 15.14 90.2384 15.0093 89.7624 14.748C89.2864 14.4773 88.9178 14.1133 88.6564 13.656C88.4044 13.1893 88.2784 12.6573 88.2784 12.06C88.2784 11.4907 88.4231 10.9727 88.7124 10.506C89.0018 10.0393 89.3891 9.666 89.8744 9.386C90.3598 9.106 90.9011 8.966 91.4984 8.966C92.2638 8.966 92.8984 9.19 93.4024 9.638C93.9064 10.086 94.2471 10.702 94.4244 11.486L89.6504 13.166L89.3424 12.396L93.2624 10.968L92.9824 11.15C92.8704 10.842 92.6838 10.576 92.4224 10.352C92.1611 10.1187 91.8204 10.002 91.4004 10.002C91.0458 10.002 90.7284 10.0907 90.4484 10.268C90.1684 10.436 89.9491 10.6693 89.7904 10.968C89.6318 11.2667 89.5524 11.6073 89.5524 11.99C89.5524 12.3913 89.6364 12.746 89.8044 13.054C89.9724 13.3527 90.2011 13.5907 90.4904 13.768C90.7891 13.936 91.1251 14.02 91.4984 14.02C91.7504 14.02 91.9931 13.9733 92.2264 13.88C92.4691 13.7867 92.6931 13.6653 92.8984 13.516L93.5004 14.482C93.2111 14.678 92.8844 14.8367 92.5204 14.958C92.1658 15.0793 91.8158 15.14 91.4704 15.14Z" fill="#89BCD9"/>
</svg>
