<svg width="445" height="80" viewBox="0 0 445 80" fill="none" xmlns="http://www.w3.org/2000/svg">
<rect x="0.5" y="20.5" width="444" height="59" rx="29.5" stroke="#89BCD9"/>
<path d="M31.144 11.626L27.392 4.878H29.058L32.068 10.464L31.648 10.492L34.63 4.878H36.282L32.502 11.626V15H31.144V11.626ZM35.8195 12.046C35.8195 11.4673 35.9548 10.9447 36.2255 10.478C36.5055 10.0113 36.8881 9.64267 37.3735 9.372C37.8588 9.10133 38.4095 8.966 39.0255 8.966C39.6601 8.966 40.2155 9.10133 40.6915 9.372C41.1675 9.64267 41.5361 10.0113 41.7975 10.478C42.0588 10.9447 42.1895 11.4673 42.1895 12.046C42.1895 12.6247 42.0588 13.152 41.7975 13.628C41.5361 14.0947 41.1628 14.4633 40.6775 14.734C40.2015 15.0047 39.6461 15.14 39.0115 15.14C38.3955 15.14 37.8448 15.014 37.3595 14.762C36.8835 14.5007 36.5055 14.1413 36.2255 13.684C35.9548 13.2173 35.8195 12.6713 35.8195 12.046ZM37.1215 12.06C37.1215 12.4333 37.2055 12.774 37.3735 13.082C37.5415 13.3807 37.7655 13.6187 38.0455 13.796C38.3348 13.9733 38.6521 14.062 38.9975 14.062C39.3615 14.062 39.6835 13.9733 39.9635 13.796C40.2528 13.6187 40.4768 13.3807 40.6355 13.082C40.7941 12.774 40.8735 12.4333 40.8735 12.06C40.8735 11.6867 40.7941 11.3507 40.6355 11.052C40.4768 10.744 40.2528 10.5013 39.9635 10.324C39.6835 10.1373 39.3615 10.044 38.9975 10.044C38.6428 10.044 38.3208 10.1373 38.0315 10.324C37.7515 10.5107 37.5275 10.758 37.3595 11.066C37.2008 11.3647 37.1215 11.696 37.1215 12.06ZM45.7864 15.224C45.2637 15.224 44.8297 15.0653 44.4844 14.748C44.1484 14.4213 43.971 14.0013 43.9524 13.488V9.204H45.2544V13.026C45.273 13.3433 45.3617 13.6 45.5204 13.796C45.6884 13.992 45.9497 14.0947 46.3044 14.104C46.631 14.104 46.9204 14.0107 47.1724 13.824C47.4337 13.628 47.6437 13.3667 47.8024 13.04C47.961 12.704 48.0404 12.326 48.0404 11.906V9.204H49.3424V15H48.1524L48.0404 13.572L48.1104 13.824C47.9984 14.0947 47.8257 14.3373 47.5924 14.552C47.3684 14.7573 47.1024 14.9207 46.7944 15.042C46.4864 15.1633 46.1504 15.224 45.7864 15.224ZM52.7569 9.204L52.8829 10.884L52.8129 10.66C52.9623 10.3053 53.1769 10.0067 53.4569 9.764C53.7463 9.512 54.0449 9.32067 54.3529 9.19C54.6703 9.05 54.9456 8.98 55.1789 8.98L55.1089 10.268C54.6703 10.24 54.2829 10.324 53.9469 10.52C53.6203 10.716 53.3589 10.9773 53.1629 11.304C52.9763 11.6307 52.8829 11.9807 52.8829 12.354V15H51.5949V9.204H52.7569ZM61.6103 4.878H68.1903V6.18H62.9683V9.26H67.6303V10.562H62.9683V13.698H68.3863V15H61.6103V4.878ZM71.5831 9.204L71.6951 10.506L71.6391 10.394C71.8538 9.95533 72.1571 9.61 72.5491 9.358C72.9504 9.106 73.4078 8.98 73.9211 8.98C74.2478 8.98 74.5371 9.03133 74.7891 9.134C75.0411 9.23667 75.2464 9.386 75.4051 9.582C75.5731 9.76867 75.6804 10.002 75.7271 10.282L75.6571 10.324C75.8811 9.904 76.1891 9.57733 76.5811 9.344C76.9824 9.10133 77.4024 8.98 77.8411 8.98C78.4104 8.98 78.8584 9.14333 79.1851 9.47C79.5211 9.78733 79.6938 10.2027 79.7031 10.716V15H78.4011V11.178C78.3918 10.8793 78.3171 10.632 78.1771 10.436C78.0464 10.2307 77.8131 10.1187 77.4771 10.1C77.1411 10.1 76.8378 10.2027 76.5671 10.408C76.3058 10.6133 76.1004 10.8793 75.9511 11.206C75.8018 11.5233 75.7224 11.8687 75.7131 12.242V15H74.4111V11.178C74.4018 10.8793 74.3224 10.632 74.1731 10.436C74.0331 10.2307 73.7951 10.1187 73.4591 10.1C73.1138 10.1 72.8104 10.2027 72.5491 10.408C72.2878 10.6133 72.0824 10.8793 71.9331 11.206C71.7931 11.5327 71.7231 11.8827 71.7231 12.256V15H70.4211V9.204H71.5831ZM84.3818 15.14C83.8405 15.14 83.3458 15.0233 82.8978 14.79C82.4592 14.5567 82.1092 14.216 81.8478 13.768C81.5958 13.3107 81.4698 12.7553 81.4698 12.102C81.4698 11.458 81.6052 10.9027 81.8758 10.436C82.1465 9.96 82.5058 9.596 82.9538 9.344C83.4112 9.092 83.9105 8.966 84.4518 8.966C84.9932 8.966 85.4505 9.092 85.8238 9.344C86.1972 9.58667 86.4818 9.876 86.6778 10.212L86.5938 10.436L86.7198 9.204H87.9238V15H86.6218V13.488L86.7618 13.824C86.7245 13.9173 86.6405 14.0387 86.5098 14.188C86.3885 14.328 86.2205 14.4727 86.0058 14.622C85.8005 14.7713 85.5625 14.8973 85.2918 15C85.0212 15.0933 84.7178 15.14 84.3818 15.14ZM84.7318 14.062C85.0585 14.062 85.3525 14.0013 85.6138 13.88C85.8752 13.7587 86.0898 13.5907 86.2578 13.376C86.4352 13.152 86.5565 12.886 86.6218 12.578V11.444C86.5472 11.164 86.4165 10.9213 86.2298 10.716C86.0432 10.5013 85.8192 10.338 85.5578 10.226C85.2965 10.1047 85.0072 10.044 84.6898 10.044C84.3445 10.044 84.0272 10.128 83.7378 10.296C83.4485 10.464 83.2152 10.6973 83.0378 10.996C82.8698 11.2947 82.7858 11.6447 82.7858 12.046C82.7858 12.4193 82.8745 12.76 83.0518 13.068C83.2292 13.376 83.4672 13.6187 83.7658 13.796C84.0645 13.9733 84.3865 14.062 84.7318 14.062ZM90.177 9.204H91.479V15H90.177V9.204ZM90.079 7.104C90.079 6.89867 90.1583 6.726 90.317 6.586C90.485 6.446 90.667 6.376 90.863 6.376C91.059 6.376 91.2316 6.446 91.381 6.586C91.5396 6.726 91.619 6.89867 91.619 7.104C91.619 7.31867 91.5396 7.496 91.381 7.636C91.2316 7.76667 91.059 7.832 90.863 7.832C90.667 7.832 90.485 7.762 90.317 7.622C90.1583 7.482 90.079 7.30933 90.079 7.104ZM93.7317 4.164H95.0337V15H93.7317V4.164Z" fill="#89BCD9"/>
</svg>
