<svg width="911" height="164" viewBox="0 0 911 164" fill="none" xmlns="http://www.w3.org/2000/svg">
<rect x="0.5" y="17.875" width="910" height="145.625" rx="29.5" stroke="#89BCD9"/>
<path d="M31.144 9.06741L27.392 2.31941H29.058L32.068 7.90541L31.648 7.93341L34.63 2.31941H36.282L32.502 9.06741V12.4414H31.144V9.06741ZM35.8195 9.48741C35.8195 8.90874 35.9548 8.38607 36.2255 7.91941C36.5055 7.45274 36.8881 7.08407 37.3735 6.81341C37.8588 6.54274 38.4095 6.40741 39.0255 6.40741C39.6601 6.40741 40.2155 6.54274 40.6915 6.81341C41.1675 7.08407 41.5361 7.45274 41.7975 7.91941C42.0588 8.38607 42.1895 8.90874 42.1895 9.48741C42.1895 10.0661 42.0588 10.5934 41.7975 11.0694C41.5361 11.5361 41.1628 11.9047 40.6775 12.1754C40.2015 12.4461 39.6461 12.5814 39.0115 12.5814C38.3955 12.5814 37.8448 12.4554 37.3595 12.2034C36.8835 11.9421 36.5055 11.5827 36.2255 11.1254C35.9548 10.6587 35.8195 10.1127 35.8195 9.48741ZM37.1215 9.50141C37.1215 9.87474 37.2055 10.2154 37.3735 10.5234C37.5415 10.8221 37.7655 11.0601 38.0455 11.2374C38.3348 11.4147 38.6521 11.5034 38.9975 11.5034C39.3615 11.5034 39.6835 11.4147 39.9635 11.2374C40.2528 11.0601 40.4768 10.8221 40.6355 10.5234C40.7941 10.2154 40.8735 9.87474 40.8735 9.50141C40.8735 9.12807 40.7941 8.79207 40.6355 8.49341C40.4768 8.18541 40.2528 7.94274 39.9635 7.76541C39.6835 7.57874 39.3615 7.48541 38.9975 7.48541C38.6428 7.48541 38.3208 7.57874 38.0315 7.76541C37.7515 7.95207 37.5275 8.19941 37.3595 8.50741C37.2008 8.80607 37.1215 9.13741 37.1215 9.50141ZM45.7864 12.6654C45.2637 12.6654 44.8297 12.5067 44.4844 12.1894C44.1484 11.8627 43.971 11.4427 43.9524 10.9294V6.64541H45.2544V10.4674C45.273 10.7847 45.3617 11.0414 45.5204 11.2374C45.6884 11.4334 45.9497 11.5361 46.3044 11.5454C46.631 11.5454 46.9204 11.4521 47.1724 11.2654C47.4337 11.0694 47.6437 10.8081 47.8024 10.4814C47.961 10.1454 48.0404 9.76741 48.0404 9.34741V6.64541H49.3424V12.4414H48.1524L48.0404 11.0134L48.1104 11.2654C47.9984 11.5361 47.8257 11.7787 47.5924 11.9934C47.3684 12.1987 47.1024 12.3621 46.7944 12.4834C46.4864 12.6047 46.1504 12.6654 45.7864 12.6654ZM52.7569 6.64541L52.8829 8.32541L52.8129 8.10141C52.9623 7.74674 53.1769 7.44807 53.4569 7.20541C53.7463 6.95341 54.0449 6.76207 54.3529 6.63141C54.6703 6.49141 54.9456 6.42141 55.1789 6.42141L55.1089 7.70941C54.6703 7.68141 54.2829 7.76541 53.9469 7.96141C53.6203 8.15741 53.3589 8.41874 53.1629 8.74541C52.9763 9.07207 52.8829 9.42207 52.8829 9.79541V12.4414H51.5949V6.64541H52.7569ZM61.6103 12.4414V1.99741H61.6243L66.9303 9.52941L66.3563 9.41741L71.6483 1.99741H71.6763V12.4414H70.3323V5.07741L70.4163 5.76341L66.5943 11.1674H66.5663L62.6883 5.76341L62.9263 5.13341V12.4414H61.6103ZM76.9509 12.5814C76.2882 12.5814 75.7189 12.4507 75.2429 12.1894C74.7669 11.9187 74.3982 11.5547 74.1369 11.0974C73.8849 10.6307 73.7589 10.0987 73.7589 9.50141C73.7589 8.93207 73.9036 8.41407 74.1929 7.94741C74.4822 7.48074 74.8696 7.10741 75.3549 6.82741C75.8402 6.54741 76.3816 6.40741 76.9789 6.40741C77.7442 6.40741 78.3789 6.63141 78.8829 7.07941C79.3869 7.52741 79.7276 8.14341 79.9049 8.92741L75.1309 10.6074L74.8229 9.83741L78.7429 8.40941L78.4629 8.59141C78.3509 8.28341 78.1642 8.01741 77.9029 7.79341C77.6416 7.56007 77.3009 7.44341 76.8809 7.44341C76.5262 7.44341 76.2089 7.53207 75.9289 7.70941C75.6489 7.87741 75.4296 8.11074 75.2709 8.40941C75.1122 8.70807 75.0329 9.04874 75.0329 9.43141C75.0329 9.83274 75.1169 10.1874 75.2849 10.4954C75.4529 10.7941 75.6816 11.0321 75.9709 11.2094C76.2696 11.3774 76.6056 11.4614 76.9789 11.4614C77.2309 11.4614 77.4736 11.4147 77.7069 11.3214C77.9496 11.2281 78.1736 11.1067 78.3789 10.9574L78.9809 11.9234C78.6916 12.1194 78.3649 12.2781 78.0009 12.3994C77.6462 12.5207 77.2962 12.5814 76.9509 12.5814ZM83.1603 12.5534C82.7497 12.5534 82.3483 12.4834 81.9563 12.3434C81.5737 12.1941 81.2563 11.9747 81.0043 11.6854L81.5503 10.9294C81.793 11.1627 82.0403 11.3401 82.2923 11.4614C82.5537 11.5734 82.8103 11.6294 83.0623 11.6294C83.249 11.6294 83.4217 11.6061 83.5803 11.5594C83.739 11.5127 83.865 11.4381 83.9583 11.3354C84.061 11.2234 84.1123 11.0741 84.1123 10.8874C84.1123 10.6821 84.0423 10.5187 83.9023 10.3974C83.7717 10.2761 83.599 10.1781 83.3843 10.1034C83.179 10.0287 82.9597 9.95874 82.7263 9.89341C82.2503 9.73474 81.8863 9.51541 81.6343 9.23541C81.3823 8.95541 81.2563 8.61474 81.2563 8.21341C81.2563 7.90541 81.331 7.62074 81.4803 7.35941C81.639 7.08874 81.8677 6.86941 82.1663 6.70141C82.4743 6.53341 82.8523 6.44941 83.3003 6.44941C83.7017 6.44941 84.061 6.50074 84.3783 6.60341C84.6957 6.69674 84.9943 6.85541 85.2743 7.07941L84.7563 7.89141C84.5883 7.71407 84.3877 7.58341 84.1543 7.49941C83.921 7.41541 83.711 7.36874 83.5243 7.35941C83.3657 7.35007 83.2117 7.37341 83.0623 7.42941C82.9223 7.48541 82.8057 7.56474 82.7123 7.66741C82.619 7.77007 82.5723 7.89141 82.5723 8.03141C82.5723 8.22741 82.6377 8.38607 82.7683 8.50741C82.899 8.62874 83.067 8.72674 83.2723 8.80141C83.487 8.86674 83.697 8.93674 83.9023 9.01141C84.1917 9.09541 84.4483 9.20741 84.6723 9.34741C84.8963 9.48741 85.0737 9.66007 85.2043 9.86541C85.3443 10.0707 85.4143 10.3274 85.4143 10.6354C85.4143 10.9807 85.3303 11.3027 85.1623 11.6014C85.0037 11.8907 84.7563 12.1241 84.4203 12.3014C84.0937 12.4694 83.6737 12.5534 83.1603 12.5534ZM88.8615 12.5534C88.4508 12.5534 88.0495 12.4834 87.6575 12.3434C87.2748 12.1941 86.9575 11.9747 86.7055 11.6854L87.2515 10.9294C87.4942 11.1627 87.7415 11.3401 87.9935 11.4614C88.2548 11.5734 88.5115 11.6294 88.7635 11.6294C88.9502 11.6294 89.1228 11.6061 89.2815 11.5594C89.4402 11.5127 89.5662 11.4381 89.6595 11.3354C89.7622 11.2234 89.8135 11.0741 89.8135 10.8874C89.8135 10.6821 89.7435 10.5187 89.6035 10.3974C89.4728 10.2761 89.3002 10.1781 89.0855 10.1034C88.8802 10.0287 88.6608 9.95874 88.4275 9.89341C87.9515 9.73474 87.5875 9.51541 87.3355 9.23541C87.0835 8.95541 86.9575 8.61474 86.9575 8.21341C86.9575 7.90541 87.0322 7.62074 87.1815 7.35941C87.3402 7.08874 87.5688 6.86941 87.8675 6.70141C88.1755 6.53341 88.5535 6.44941 89.0015 6.44941C89.4028 6.44941 89.7622 6.50074 90.0795 6.60341C90.3968 6.69674 90.6955 6.85541 90.9755 7.07941L90.4575 7.89141C90.2895 7.71407 90.0888 7.58341 89.8555 7.49941C89.6222 7.41541 89.4122 7.36874 89.2255 7.35941C89.0668 7.35007 88.9128 7.37341 88.7635 7.42941C88.6235 7.48541 88.5068 7.56474 88.4135 7.66741C88.3202 7.77007 88.2735 7.89141 88.2735 8.03141C88.2735 8.22741 88.3388 8.38607 88.4695 8.50741C88.6002 8.62874 88.7682 8.72674 88.9735 8.80141C89.1882 8.86674 89.3982 8.93674 89.6035 9.01141C89.8928 9.09541 90.1495 9.20741 90.3735 9.34741C90.5975 9.48741 90.7748 9.66007 90.9055 9.86541C91.0455 10.0707 91.1155 10.3274 91.1155 10.6354C91.1155 10.9807 91.0315 11.3027 90.8635 11.6014C90.7048 11.8907 90.4575 12.1241 90.1215 12.3014C89.7948 12.4694 89.3748 12.5534 88.8615 12.5534ZM95.3467 12.5814C94.8054 12.5814 94.3107 12.4647 93.8627 12.2314C93.424 11.9981 93.074 11.6574 92.8127 11.2094C92.5607 10.7521 92.4347 10.1967 92.4347 9.54341C92.4347 8.89941 92.57 8.34407 92.8407 7.87741C93.1114 7.40141 93.4707 7.03741 93.9187 6.78541C94.376 6.53341 94.8754 6.40741 95.4167 6.40741C95.958 6.40741 96.4154 6.53341 96.7887 6.78541C97.162 7.02807 97.4467 7.31741 97.6427 7.65341L97.5587 7.87741L97.6847 6.64541H98.8887V12.4414H97.5867V10.9294L97.7267 11.2654C97.6894 11.3587 97.6054 11.4801 97.4747 11.6294C97.3534 11.7694 97.1854 11.9141 96.9707 12.0634C96.7654 12.2127 96.5274 12.3387 96.2567 12.4414C95.986 12.5347 95.6827 12.5814 95.3467 12.5814ZM95.6967 11.5034C96.0234 11.5034 96.3174 11.4427 96.5787 11.3214C96.84 11.2001 97.0547 11.0321 97.2227 10.8174C97.4 10.5934 97.5214 10.3274 97.5867 10.0194V8.88541C97.512 8.60541 97.3814 8.36274 97.1947 8.15741C97.008 7.94274 96.784 7.77941 96.5227 7.66741C96.2614 7.54607 95.972 7.48541 95.6547 7.48541C95.3094 7.48541 94.992 7.56941 94.7027 7.73741C94.4134 7.90541 94.18 8.13874 94.0027 8.43741C93.8347 8.73607 93.7507 9.08607 93.7507 9.48741C93.7507 9.86074 93.8394 10.2014 94.0167 10.5094C94.194 10.8174 94.432 11.0601 94.7307 11.2374C95.0294 11.4147 95.3514 11.5034 95.6967 11.5034ZM103.928 15.3114C103.498 15.3114 103.12 15.2601 102.794 15.1574C102.467 15.0641 102.168 14.9287 101.898 14.7514C101.636 14.5741 101.384 14.3734 101.142 14.1494L101.898 13.2674C102.206 13.5567 102.518 13.7807 102.836 13.9394C103.153 14.0981 103.508 14.1774 103.9 14.1774C104.338 14.1774 104.707 14.1027 105.006 13.9534C105.314 13.8134 105.547 13.6127 105.706 13.3514C105.864 13.0994 105.944 12.8054 105.944 12.4694L105.958 10.9014L106.07 11.1534C105.902 11.5547 105.598 11.8954 105.16 12.1754C104.721 12.4461 104.189 12.5814 103.564 12.5814C103.032 12.5814 102.542 12.4461 102.094 12.1754C101.655 11.9047 101.3 11.5407 101.03 11.0834C100.768 10.6167 100.638 10.0941 100.638 9.51541C100.638 8.90874 100.778 8.37674 101.058 7.91941C101.338 7.45274 101.706 7.08407 102.164 6.81341C102.621 6.54274 103.12 6.40741 103.662 6.40741C104.175 6.40741 104.642 6.51474 105.062 6.72941C105.491 6.93474 105.804 7.20074 106 7.52741L105.93 7.76541L106.07 6.64541H107.26V12.4834C107.26 13.0061 107.124 13.4821 106.854 13.9114C106.583 14.3407 106.2 14.6814 105.706 14.9334C105.211 15.1854 104.618 15.3114 103.928 15.3114ZM101.94 9.48741C101.94 9.86074 102.028 10.2014 102.206 10.5094C102.383 10.8174 102.621 11.0601 102.92 11.2374C103.228 11.4147 103.568 11.5034 103.942 11.5034C104.287 11.5034 104.595 11.4427 104.866 11.3214C105.146 11.1907 105.379 11.0181 105.566 10.8034C105.752 10.5794 105.883 10.3227 105.958 10.0334V8.88541C105.874 8.60541 105.734 8.36274 105.538 8.15741C105.342 7.94274 105.108 7.77941 104.838 7.66741C104.567 7.54607 104.268 7.48541 103.942 7.48541C103.568 7.48541 103.228 7.56941 102.92 7.73741C102.621 7.90541 102.383 8.14341 102.206 8.45141C102.028 8.75007 101.94 9.09541 101.94 9.48741ZM112.197 12.5814C111.534 12.5814 110.965 12.4507 110.489 12.1894C110.013 11.9187 109.644 11.5547 109.383 11.0974C109.131 10.6307 109.005 10.0987 109.005 9.50141C109.005 8.93207 109.15 8.41407 109.439 7.94741C109.728 7.48074 110.116 7.10741 110.601 6.82741C111.086 6.54741 111.628 6.40741 112.225 6.40741C112.99 6.40741 113.625 6.63141 114.129 7.07941C114.633 7.52741 114.974 8.14341 115.151 8.92741L110.377 10.6074L110.069 9.83741L113.989 8.40941L113.709 8.59141C113.597 8.28341 113.41 8.01741 113.149 7.79341C112.888 7.56007 112.547 7.44341 112.127 7.44341C111.772 7.44341 111.455 7.53207 111.175 7.70941C110.895 7.87741 110.676 8.11074 110.517 8.40941C110.358 8.70807 110.279 9.04874 110.279 9.43141C110.279 9.83274 110.363 10.1874 110.531 10.4954C110.699 10.7941 110.928 11.0321 111.217 11.2094C111.516 11.3774 111.852 11.4614 112.225 11.4614C112.477 11.4614 112.72 11.4147 112.953 11.3214C113.196 11.2281 113.42 11.1067 113.625 10.9574L114.227 11.9234C113.938 12.1194 113.611 12.2781 113.247 12.3994C112.892 12.5207 112.542 12.5814 112.197 12.5814Z" fill="#89BCD9"/>
</svg>
